<?xml version="1.0" encoding="utf-8"?>
<!-- Generator: Adobe Illustrator 25.4.1, SVG Export Plug-In . SVG Version: 6.00 Build 0)  -->
<svg version="1.1" id="Camada_1" xmlns="http://www.w3.org/2000/svg" xmlns:xlink="http://www.w3.org/1999/xlink" x="0px" y="0px"
	 viewBox="0 0 150.3 50" style="enable-background:new 0 0 150.3 50;" xml:space="preserve">
<style type="text/css">
	.st0{fill-rule:evenodd;clip-rule:evenodd;fill:#E30613;}
</style>
<g>
	<g>
		<path class="st0" d="M9.1,8.3h132V13h-7v0.7h7v4h-7v0.7h7v4h-7V23h7v4h-7v0.7h7v4h-7v0.7h7v4h-7v0.7h7v4.6H9.1v-4.6h7v-0.7h-7v-4
			h7v-0.7h-7v-4h7V27h-7v-4h7v-0.7h-7v-4h7v-0.7h-7v-4h7V13h-7V8.3L9.1,8.3z M41.4,20.1h-6.8c1-3.4-4.9-4.1-6-0.7
			c-0.7,2.1,2.4,2.4,3.2,2.7c2.5,1,6,1.1,7.5,3.4c1.4,2.2,0.7,5.6-0.8,7.8c-0.8,1.2-2.3,2.2-3.7,2.9c-1.5,0.8-3.9,1.3-6.5,1.3
			c-4.8,0-10-0.6-9.6-7.5v-0.6h6.9c-0.5,2.2,1.1,3.5,3.5,3.3c1.3-0.1,3.8-0.9,3.9-2.6c0.1-1.7-2.3-2.4-3.5-2.8c-3.4-1-8.5-1.6-8.2-6
			c0.4-5.9,5.4-8.7,11-8.7C39,12.6,42.6,14.2,41.4,20.1L41.4,20.1z M65.4,13.1l-0.9,4.7H52.8L52,22.6h10.8l-1,4.8H51l-1,5h11.8
			L60.6,37H42.1l5.1-23.8h18.2V13.1z M92.8,13l-5.2,24h-9.2l-4.1-18.2h-0.1l-4,18.2h-5.9l5-23.9h9.3L83,30.4l0,0L86.7,13H92.8
			L92.8,13z M117.3,37h-7.5l-0.7-4.5h-9.5L97,37h-6.9l14.5-23.8h8.2L117.3,37L117.3,37z M108.6,27.7l-1.1-10h-0.1l-5.2,10H108.6
			L108.6,27.7z M131.6,13.1L126.5,37h-6.8l5.1-23.8h6.8V13.1z"/>
	</g>
</g>
</svg>
